# xmcd
#
# Track frame offsets:
#	150
#	14632
#	27397
#	43186
#	58169
#	75537
#	93880
#	108951
#
# Disc length: 1591 seconds
#
# Revision: 1
# Processed by: cddbd v1.5.2PL0 Copyright (c) Steve Scherf et al.
# Submitted via: audiograbber 1.83.01
#
DISCID=60063508
DTITLE=George Strait - Cowboy love Songs
DYEAR=2010
DGENRE=
TTITLE0=You Look So Good In Love
TTITLE1=The Chair
TTITLE2=I Cross My heart
TTITLE3=You're Something Special To Me
TTITLE4=Carrying Your Love With me
TTITLE5=Run
TTITLE6=Check Yes Or No
TTITLE7=If You Ain't Lovin' (You ain't Livin')
EXTD=Wrangler Special Promotions
EXTT0=
EXTT1=
EXTT2=
EXTT3=
EXTT4=
EXTT5=
EXTT6=
EXTT7=
PLAYORDER=
